:SAMPLES-PER-SECOND 30
:FULLY-SPECIFIED
:DEGREES
461
root  -2.84526 40.979 0.764803 0.268005 -76.6489 3.14484
RightUpLeg  3.38257 -1.25285 -0.351727
RightLeg  -5.65519 -29.9072 3.25753
RightFoot  -0.535001 -0.191426 1.99049
RightToes  -3.10678e-008 1.75238e-005 3.56266e-009
Spine  -1.04586 -1.56599 -8.02309
Spine1  2.99629 -2.68328 7.23534
HEad  -16.0781 -7.71804 6.39213
LeftShoulder1  1.01034 -0.289676 -20.1586
LeftArm  13.1604 -67.4988 -92.4525
LeftForeArm  71.0124 -12.3252 -1.54028
LeftHand  -1.24106 -3.71839 16.0069
RightShoulder  3.59839 7.13955 27.8499
RightArm  -36.8717 -37.5563 49.0766
RightForeArm  84.0735 3.47749 -0.503221
RightHand  -0.463847 8.21256 -4.33226
LeftUpLeg  -1.86172 0.0215429 1.74544
LeftLeg  -1.88369 1.87972 -0.671795
LeftFoot  1.16222 0.238301 -2.24013
LeftToes  4.76857e-008 1.46588e-008 1.31384e-009
462
root  -2.78979 40.98 0.72441 -0.372314 -76.2665 3.54221
RightUpLeg  3.63822 -1.3741 -0.428569
RightLeg  -5.77147 -30.1111 3.34294
RightFoot  -0.43944 -0.179391 1.84506
RightToes  -3.10678e-008 1.75238e-005 3.56266e-009
Spine  -1.80814 -0.883199 -6.9635
Spine1  4.03451 -1.70149 5.64434
HEad  -15.5958 -9.95012 7.46848
LeftShoulder1  1.45995 -1.6594 -21.9517
LeftArm  10.171 -62.1157 -93.4642
LeftForeArm  77.2077 -7.67697 0.544865
LeftHand  -1.20578 -3.5784 15.7983
RightShoulder  3.80548 7.45841 28.7714
RightArm  -36.6213 -25.987 48.8074
RightForeArm  86.6932 0.591167 -2.34191
RightHand  -0.371067 8.19588 -3.49336
LeftUpLeg  -1.58551 -0.110672 1.62246
LeftLeg  -2.16647 1.79499 -0.598407
LeftFoot  1.31036 0.260645 -2.423
LeftToes  4.76857e-008 1.46588e-008 1.31384e-009
463
root  -2.74455 40.9852 0.694285 -1.21115 -76.7986 3.9104
RightUpLeg  4.02672 -1.48254 -0.524267
RightLeg  -5.70363 -29.317 3.24737
RightFoot  -0.351493 -0.160754 1.64823
RightToes  -3.10678e-008 1.75238e-005 3.56266e-009
Spine  -2.59746 -0.184808 -6.20827
Spine1  4.81119 -0.785426 4.64
HEad  -13.8618 -11.728 7.52709
LeftShoulder1  1.91721 -2.97293 -23.3236
LeftArm  -3.03926 -55.2811 -84.3764
LeftForeArm  84.3949 -2.95654 3.63275
LeftHand  -1.0959 -2.8655 15.582
RightShoulder  3.72764 7.43566 28.1063
RightArm  -35.6624 -11.0939 48.8079
RightForeArm  90.4075 -2.20094 -4.06253
RightHand  0.0446448 7.64951 0.000136355
LeftUpLeg  -0.783659 -0.107139 1.57227
LeftLeg  -2.73454 2.48805 -0.618591
LeftFoot  1.42001 0.299473 -2.75561
LeftToes  4.76857e-008 1.46588e-008 1.31384e-009
464
root  -2.69695 41 0.691362 -1.93582 -78.791 4.24524
RightUpLeg  4.22858 -1.43972 -0.592967
RightLeg  -5.73643 -27.3128 3.08891
RightFoot  -0.0888418 -0.141595 1.43068
RightToes  -3.10678e-008 1.75238e-005 3.56266e-009
Spine  -3.22703 0.562283 -5.63511
Spine1  4.82948 0.050646 4.29173
HEad  -11.3227 -11.8342 6.46846
LeftShoulder1  2.50759 -4.55901 -24.9263
LeftArm  -15.7795 -46.6467 -74.569
LeftForeArm  94.9311 0.950153 7.13123
LeftHand  -1.04279 -2.91332 14.7711
RightShoulder  3.5486 7.39677 26.538
RightArm  -33.5757 5.7807 48.5734
RightForeArm  88.332 -3.31418 -4.1843
RightHand  -0.00108797 6.66223 -0.364751
LeftUpLeg  0.174194 0.0356982 1.61814
LeftLeg  -3.43719 4.44903 -0.744465
LeftFoot  1.54936 0.307135 -2.8023
LeftToes  4.76857e-008 1.46588e-008 1.31384e-009
465
root  -2.66478 41.0105 0.728724 -2.64594 -81.6167 4.55759
RightUpLeg  4.24731 -1.29152 -0.613116
RightLeg  -5.45629 -24.6113 2.66448
RightFoot  0.146366 -0.134899 1.33428
RightToes  -3.10678e-008 1.75238e-005 3.56266e-009
Spine  -3.41573 1.1821 -3.99509
Spine1  4.24147 0.879984 2.98997
HEad  -7.86756 -11.2362 4.85766
LeftShoulder1  3.01669 -5.78058 -26.3823
LeftArm  -26.8643 -35.1613 -65.9517
LeftForeArm  107.909 1.3603 10.4356
LeftHand  -1.0102 -3.26572 13.7539
RightShoulder  3.34524 7.47399 24.3568
RightArm  -31.0442 23.2854 49.4694
RightForeArm  85.1867 -3.40213 -3.89142
RightHand  -0.0551194 5.85658 -0.891614
LeftUpLeg  1.10595 0.184518 1.67218
LeftLeg  -3.78812 7.15459 -0.861266
LeftFoot  1.36999 0.331272 -3.04952
LeftToes  4.76857e-008 1.46588e-008 1.31384e-009
466
root  -2.69997 41.0065 0.786551 -6.72073 -84.8858 8.30582
RightUpLeg  4.04856 -1.1978 -0.701793
RightLeg  -4.68307 -21.3001 2.05044
RightFoot  0.0744074 -0.143134 1.43651
RightToes  -3.10678e-008 1.75238e-005 3.56266e-009
Spine  -3.60192 1.5855 -1.59661
Spine1  4.21878 1.61431 0.726086
HEad  -6.10286 -9.41899 3.98337
LeftShoulder1  3.32322 -6.41816 -27.4283
LeftArm  -34.2327 -20.4016 -58.6806
LeftForeArm  117.253 0.585587 11.4334
LeftHand  -0.998243 -3.11669 13.8332
RightShoulder  2.92865 7.14266 21.1962
RightArm  -27.4591 40.0058 53.4564
RightForeArm  82.096 -3.51183 -4.04062
RightHand  -0.0583 5.88058 -0.929493
LeftUpLeg  1.94014 0.320491 1.66331
LeftLeg  -3.75831 10.3047 -0.984508
LeftFoot  0.887262 0.325393 -3.08695
LeftToes  4.76857e-008 1.46588e-008 1.31384e-009
467
root  -2.77764 40.9996 0.827072 10.7206 -88.1575 -8.9801
RightUpLeg  3.32558 -1.01697 -0.769972
RightLeg  -3.84312 -18.2398 1.45416
RightFoot  -0.0760318 -0.153284 1.54784
RightToes  -3.10678e-008 1.75238e-005 3.56266e-009
Spine  -3.11337 1.75348 1.10753
Spine1  3.08477 2.2799 -2.55182
HEad  -5.61335 -7.46436 4.44803
LeftShoulder1  3.29755 -6.46666 -26.9821
LeftArm  -38.2443 -2.85 -54.6417
LeftForeArm  121.968 0.497052 10.8588
LeftHand  -0.976719 -2.60636 14.3592
RightShoulder  2.25828 5.96259 17.2268
RightArm  -22.0545 53.4412 61.4579
RightForeArm  75.6427 -3.68265 -4.75854
RightHand  -0.000298815 5.92229 -0.331567
LeftUpLeg  2.31817 0.332108 1.55915
LeftLeg  -3.79571 13.4611 -1.13566
LeftFoot  0.468001 0.303872 -2.96672
LeftToes  4.76857e-008 1.46588e-008 1.31384e-009
468
root  -2.92937 40.9939 0.848947 -111.109 -88.9723 113.32
RightUpLeg  2.55336 -0.71283 -0.740068
RightLeg  -3.32429 -15.8969 0.992706
RightFoot  -0.207954 -0.172835 1.7516
RightToes  -3.10678e-008 1.75238e-005 3.56266e-009
Spine  -3.37351 1.66669 2.65817
Spine1  2.33926 2.51813 -4.85247
HEad  -6.08313 -4.90164 5.19222
LeftShoulder1  3.01766 -6.05371 -25.4173
LeftArm  -39.6788 16.724 -53.0799
LeftForeArm  122.714 0.100751 8.23717
LeftHand  -0.995749 -2.81892 14.251
RightShoulder  1.49833 3.91689 13.264
RightArm  -13.6314 64.7424 71.0045
RightForeArm  67.6641 -3.81624 -4.71555
RightHand  0.0808944 5.25707 0.582369
LeftUpLeg  2.53707 0.202253 1.41326
LeftLeg  -4.13545 16.2485 -1.23136
LeftFoot  0.179639 0.30855 -3.06997
LeftToes  4.76857e-008 1.46588e-008 1.31384e-009
469
root  -3.12065 40.9889 0.847713 178.88 -86.8235 -176.327
RightUpLeg  2.20669 -0.242585 -0.395585
RightLeg  -3.24787 -13.859 0.706776
RightFoot  -0.19693 -0.185863 1.88345
RightToes  -3.10678e-008 1.75238e-005 3.56266e-009
Spine  -3.57832 1.85415 3.65778
Spine1  1.41171 2.84901 -6.28005
HEad  -6.75586 -3.41806 6.79611
LeftShoulder1  2.65344 -5.43786 -23.4299
LeftArm  -44.9325 34.6412 -54.7875
LeftForeArm  122.891 -2.86467 7.72934
LeftHand  -1.08986 -3.63528 14.2387
RightShoulder  0.882016 1.56966 10.1237
RightArm  -0.374205 71.0059 83.8179
RightForeArm  60.9094 -3.05996 -4.02662
RightHand  0.140765 4.50064 1.35468
LeftUpLeg  2.89545 0.326198 1.58982
LeftLeg  -4.38887 18.6082 -1.31989
LeftFoot  -0.173027 0.30591 -3.11824
LeftToes  4.76857e-008 1.46588e-008 1.31384e-009
470
root  -3.30409 40.9778 0.834767 -179.761 -84.2372 -177.514
RightUpLeg  1.99808 0.0688446 -0.168821
RightLeg  -3.10408 -11.5913 0.470757
RightFoot  -0.259699 -0.185266 1.85012
RightToes  -3.10678e-008 1.75238e-005 3.56266e-009
Spine  -3.8889 2.51994 4.00719
Spine1  0.624575 3.55468 -6.94812
HEad  -6.91865 -2.71901 7.75898
LeftShoulder1  2.3762 -5.1003 -21.2566
LeftArm  -53.0866 49.2519 -59.016
LeftForeArm  125.924 -4.74127 8.94403
LeftHand  -0.950579 -4.4313 11.488
RightShoulder  0.375799 -0.958857 7.20874
RightArm  15.9129 75.6108 99.7166
RightForeArm  56.0889 -1.71223 -3.40316
RightHand  0.16347 5.49069 1.43426
LeftUpLeg  3.44623 0.548035 1.73461
LeftLeg  -4.65667 20.9014 -1.54631
LeftFoot  -0.508732 0.30378 -3.17338
LeftToes  4.76857e-008 1.46588e-008 1.31384e-009
471
root  -3.46651 40.9643 0.832879 178.863 -82.2704 -176.35
RightUpLeg  2.24561 0.30584 0.0496728
RightLeg  -2.97814 -9.84808 0.235538
RightFoot  -0.383392 -0.19224 1.94543
RightToes  -3.10678e-008 1.75238e-005 3.56266e-009
Spine  -4.41051 2.97415 3.86105
Spine1  0.801954 3.98882 -6.83978
HEad  -6.75494 -2.71013 8.19524
LeftShoulder1  2.20062 -4.80514 -20.0269
LeftArm  -62.8728 59.6101 -64.6725
LeftForeArm  134.638 -5.92597 11.4124
LeftHand  -1.06806 -5.24291 11.9281
RightShoulder  0.0457092 -3.11686 5.28795
RightArm  27.6954 77.7381 110.969
RightForeArm  51.865 0.33986 -2.5925
RightHand  0.267104 5.41773 2.52495
LeftUpLeg  4.08825 0.700353 1.79399
LeftLeg  -4.46084 22.7016 -1.48112
LeftFoot  -0.948188 0.310721 -3.35334
LeftToes  4.76857e-008 1.46588e-008 1.31384e-009
472
root  -3.57235 40.9516 0.834418 178.288 -80.4137 -176.052
RightUpLeg  2.33665 0.418148 0.150085
RightLeg  -2.55306 -8.06068 0.0135556
RightFoot  -0.563478 -0.200922 2.06956
RightToes  -3.10678e-008 1.75238e-005 3.56266e-009
Spine  -5.53472 3.34656 4.31709
Spine1  2.20088 4.51462 -7.53446
HEad  -7.36049 -2.2201 8.81804
LeftShoulder1  2.00542 -4.4779 -18.5862
LeftArm  -72.7819 66.0931 -71.9779
LeftForeArm  140.477 -6.81685 13.1089
LeftHand  -1.13817 -6.09783 11.8014
RightShoulder  -0.0508051 -3.87745 5.27072
RightArm  33.2523 78.7778 116.077
RightForeArm  49.3742 2.36395 -1.95074
RightHand  0.376211 6.24982 3.40526
LeftUpLeg  4.73659 0.975521 1.87749
LeftLeg  -4.33084 24.2847 -1.61337
LeftFoot  -1.30252 0.297989 -3.30373
LeftToes  4.76857e-008 1.46588e-008 1.31384e-009
